<svg width="24" height="24" viewBox="0 0 24 24" fill="none" xmlns="http://www.w3.org/2000/svg">
<path d="M7.00684 12C7.00684 11.8011 7.08585 11.6103 7.22651 11.4697C7.36716 11.329 7.55792 11.25 7.75684 11.25H11.2498V7.75699C11.2498 7.55808 11.3289 7.36731 11.4695 7.22666C11.6102 7.08601 11.8009 7.00699 11.9998 7.00699C12.1987 7.00699 12.3895 7.08601 12.5302 7.22666C12.6708 7.36731 12.7498 7.55808 12.7498 7.75699V11.25H16.2428C16.4417 11.25 16.6325 11.329 16.7732 11.4697C16.9138 11.6103 16.9928 11.8011 16.9928 12C16.9928 12.1989 16.9138 12.3897 16.7732 12.5303C16.6325 12.671 16.4417 12.75 16.2428 12.75H12.7498V16.243C12.7498 16.4419 12.6708 16.6327 12.5302 16.7733C12.3895 16.914 12.1987 16.993 11.9998 16.993C11.8009 16.993 11.6102 16.914 11.4695 16.7733C11.3289 16.6327 11.2498 16.4419 11.2498 16.243V12.75H7.75684C7.55792 12.75 7.36716 12.671 7.22651 12.5303C7.08585 12.3897 7.00684 12.1989 7.00684 12Z" fill="#8B5715"/>
<path fill-rule="evenodd" clip-rule="evenodd" d="M7.31716 3.76899C10.4296 3.42393 13.5707 3.42393 16.6832 3.76899C18.5102 3.97299 19.9852 5.41199 20.1992 7.24899C20.5692 10.406 20.5692 13.595 20.1992 16.752C19.9842 18.589 18.5092 20.027 16.6832 20.232C13.5707 20.577 10.4296 20.577 7.31716 20.232C5.49016 20.027 4.01516 18.589 3.80116 16.752C3.43282 13.595 3.43282 10.4059 3.80116 7.24899C4.01516 5.41199 5.49116 3.97299 7.31716 3.76899ZM16.5172 5.25899C13.515 4.92621 10.4853 4.92621 7.48316 5.25899C6.9274 5.32064 6.40866 5.56786 6.01074 5.9607C5.61281 6.35354 5.35895 6.86907 5.29016 7.42399C4.93449 10.465 4.93449 13.537 5.29016 16.578C5.35916 17.1327 5.61312 17.648 6.01102 18.0407C6.40892 18.4333 6.92755 18.6804 7.48316 18.742C10.4602 19.074 13.5402 19.074 16.5172 18.742C17.0726 18.6802 17.591 18.433 17.9887 18.0404C18.3864 17.6478 18.6402 17.1326 18.7092 16.578C19.0648 13.537 19.0648 10.465 18.7092 7.42399C18.64 6.86958 18.3861 6.35463 17.9884 5.96221C17.5907 5.56978 17.0724 5.32276 16.5172 5.26099" fill="#8B5715"/>
</svg>
