<svg width="40" height="40" viewBox="0 0 40 40" fill="none" xmlns="http://www.w3.org/2000/svg">
<path d="M7.312 39.4614C7.02484 39.7354 6.67241 39.9139 6.29607 39.9758C5.91973 40.0377 5.53512 39.9804 5.18738 39.8108C4.83964 39.6412 4.5432 39.3663 4.33288 39.0182C4.12256 38.6702 4.00708 38.2635 4 37.846V32.9229C2.93913 32.9229 1.92172 32.4604 1.17157 31.6372C0.421427 30.814 0 29.6974 0 28.5332V13.1692C0 12.0049 0.421427 10.8884 1.17157 10.0652C1.92172 9.24193 2.93913 8.77944 4 8.77944H26C27.0609 8.77944 28.0783 9.24193 28.8284 10.0652C29.5786 10.8884 30 12.0049 30 13.1692V28.5332C30 29.6974 29.5786 30.814 28.8284 31.6372C28.0783 32.4604 27.0609 32.9229 26 32.9229H16.006L7.312 39.4614ZM9 32.6727C9.1822 32.6712 9.36108 32.6191 9.52 32.5213L14.23 28.9261C14.5652 28.6703 14.9637 28.5332 15.372 28.5332H24C24.5304 28.5332 25.0391 28.3019 25.4142 27.8903C25.7893 27.4787 26 26.9204 26 26.3383V15.364C26 14.7819 25.7893 14.2236 25.4142 13.812C25.0391 13.4004 24.5304 13.1692 24 13.1692H6C5.46957 13.1692 4.96086 13.4004 4.58579 13.812C4.21071 14.2236 4 14.7819 4 15.364V26.3383C4 27.5236 4.858 28.4937 6 28.5332C6.82 28.5683 7.414 28.7154 7.688 29.0292C7.944 29.3233 7.958 29.8194 8 30.7632C8.006 30.9014 8.006 31.1517 8 31.5753C8 31.8663 8.10536 32.1455 8.29289 32.3513C8.48043 32.5571 8.73478 32.6727 9 32.6727ZM32 21.9837C31.9935 22.2544 31.9935 22.5252 32 22.7958V21.9837ZM32 21.9837C32.04 21.0399 32.056 20.5439 32.312 20.2498C32.586 19.9359 33.18 19.7889 34 19.7537C35.142 19.7142 36 18.7441 36 17.5589V6.58458C36 6.00247 35.7893 5.4442 35.4142 5.03258C35.0391 4.62097 34.5304 4.38972 34 4.38972H16C15.4696 4.38972 14.9609 4.62097 14.5858 5.03258C14.2107 5.4442 14 6.00247 14 6.58458H10V4.38972C10 3.2255 10.4214 2.10895 11.1716 1.28572C11.9217 0.462487 12.9391 0 14 0L36 0C37.0609 0 38.0783 0.462487 38.8284 1.28572C39.5786 2.10895 40 3.2255 40 4.38972V19.7537C40 20.918 39.5786 22.0345 38.8284 22.8577C38.0783 23.681 37.0609 24.1435 36 24.1435V29.0665C35.9929 29.4841 35.8774 29.8907 35.6671 30.2388C35.4568 30.5868 35.1604 30.8618 34.8126 31.0314C34.4649 31.201 34.0803 31.2582 33.7039 31.1963C33.3276 31.1344 32.9752 30.956 32.688 30.682L32 30.164V21.9837Z" fill="white"/>
</svg>
