<svg width="40" height="40" viewBox="0 0 40 40" fill="none" xmlns="http://www.w3.org/2000/svg">
<path d="M3.9196 40V11.3333L0 1.88889L3.61809 0L8.34171 11.2222H31.6583L36.3819 0L40 1.88889L36.0804 11.3333V40H3.9196ZM15.9799 24.4444H24.0201C24.5896 24.4444 25.0673 24.2311 25.4533 23.8044C25.8392 23.3778 26.0315 22.8504 26.0301 22.2222C26.0288 21.5941 25.8358 21.0667 25.4513 20.64C25.0667 20.2133 24.5896 20 24.0201 20H15.9799C15.4104 20 14.9333 20.2133 14.5487 20.64C14.1642 21.0667 13.9712 21.5941 13.9698 22.2222C13.9685 22.8504 14.1615 23.3785 14.5487 23.8067C14.936 24.2348 15.4131 24.4474 15.9799 24.4444Z" fill="white"/>
</svg>
