<svg width="40" height="40" viewBox="0 0 40 40" fill="none" xmlns="http://www.w3.org/2000/svg">
<path d="M10 15C11.3261 15 12.5979 14.4732 13.5355 13.5355C14.4732 12.5979 15 11.3261 15 10M10 15C8.67392 15 7.40215 14.4732 6.46447 13.5355C5.52678 12.5979 5 11.3261 5 10M10 15V20M15 10C15 8.67392 14.4732 7.40215 13.5355 6.46447C12.5979 5.52678 11.3261 5 10 5M15 10H20M10 5C8.67392 5 7.40215 5.52678 6.46447 6.46447C5.52678 7.40215 5 8.67392 5 10M10 5V0M5 10H0M3.33333 3.33333L6.66667 6.66667M13.3333 13.3333L16.6667 16.6667M16.6667 3.33333L13.3333 6.66667M6.66667 13.3333L3.33333 16.6667M30 20C31.3261 20 32.5979 19.4732 33.5355 18.5355C34.4732 17.5979 35 16.3261 35 15M30 20C28.6739 20 27.4021 19.4732 26.4645 18.5355C25.5268 17.5979 25 16.3261 25 15M30 20V25M35 15C35 13.6739 34.4732 12.4021 33.5355 11.4645C32.5979 10.5268 31.3261 10 30 10M35 15H40M30 10C28.6739 10 27.4021 10.5268 26.4645 11.4645C25.5268 12.4021 25 13.6739 25 15M30 10V5M25 15H20M23.3333 8.33333L26.6667 11.6667M33.3333 18.3333L36.6667 21.6667M36.6667 8.33333L33.3333 11.6667M26.6667 18.3333L23.3333 21.6667M15 35C16.3261 35 17.5979 34.4732 18.5355 33.5355C19.4732 32.5979 20 31.3261 20 30M15 35C13.6739 35 12.4021 34.4732 11.4645 33.5355C10.5268 32.5979 10 31.3261 10 30M15 35V40M20 30C20 28.6739 19.4732 27.4021 18.5355 26.4645C17.5979 25.5268 16.3261 25 15 25M20 30H25M15 25C13.6739 25 12.4021 25.5268 11.4645 26.4645C10.5268 27.4021 10 28.6739 10 30M15 25V20M10 30H5M8.33333 23.3333L11.6667 26.6667M18.3333 33.3333L21.6667 36.6667M21.6667 23.3333L18.3333 26.6667M11.6667 33.3333L8.33333 36.6667" stroke="white" stroke-width="2"/>
</svg>
