<svg width="33" height="35" viewBox="0 0 33 35" fill="none" xmlns="http://www.w3.org/2000/svg">
<path d="M13.0263 5.6875V6.125H19.9737V5.6875C19.9737 4.75924 19.6077 3.869 18.9563 3.21263C18.3048 2.55625 17.4213 2.1875 16.5 2.1875C15.5787 2.1875 14.6952 2.55625 14.0437 3.21263C13.3923 3.869 13.0263 4.75924 13.0263 5.6875ZM10.8553 6.125V5.6875C10.8553 4.17908 11.45 2.73244 12.5086 1.66583C13.5672 0.599217 15.0029 0 16.5 0C17.9971 0 19.4328 0.599217 20.4914 1.66583C21.55 2.73244 22.1447 4.17908 22.1447 5.6875V6.125H31.9145C32.2024 6.125 32.4785 6.24023 32.6821 6.44535C32.8856 6.65047 33 6.92867 33 7.21875C33 7.50883 32.8856 7.78703 32.6821 7.99215C32.4785 8.19727 32.2024 8.3125 31.9145 8.3125H29.3813L27.6444 29.1865C27.5125 30.7717 26.7943 32.249 25.6322 33.3258C24.4701 34.4025 22.9489 35.0001 21.3701 35H11.6299C10.0513 34.9999 8.5303 34.4022 7.36838 33.3255C6.20646 32.2488 5.48837 30.7715 5.35642 29.1865L3.61958 8.3125H1.08553C0.797627 8.3125 0.521519 8.19727 0.317943 7.99215C0.114368 7.78703 0 7.50883 0 7.21875C0 6.92867 0.114368 6.65047 0.317943 6.44535C0.521519 6.24023 0.797627 6.125 1.08553 6.125H10.8553ZM14.3289 14.2188C14.3289 14.0751 14.3009 13.9329 14.2463 13.8002C14.1918 13.6675 14.1118 13.5469 14.011 13.4454C13.9102 13.3438 13.7905 13.2632 13.6588 13.2083C13.5271 13.1533 13.386 13.125 13.2434 13.125C13.1009 13.125 12.9597 13.1533 12.828 13.2083C12.6963 13.2632 12.5766 13.3438 12.4758 13.4454C12.375 13.5469 12.2951 13.6675 12.2405 13.8002C12.186 13.9329 12.1579 14.0751 12.1579 14.2188V26.9062C12.1579 27.0499 12.186 27.1921 12.2405 27.3248C12.2951 27.4575 12.375 27.5781 12.4758 27.6796C12.5766 27.7812 12.6963 27.8618 12.828 27.9167C12.9597 27.9717 13.1009 28 13.2434 28C13.386 28 13.5271 27.9717 13.6588 27.9167C13.7905 27.8618 13.9102 27.7812 14.011 27.6796C14.1118 27.5781 14.1918 27.4575 14.2463 27.3248C14.3009 27.1921 14.3289 27.0499 14.3289 26.9062V14.2188ZM19.7566 13.125C19.1574 13.125 18.6711 13.615 18.6711 14.2188V26.9062C18.6711 27.1963 18.7854 27.4745 18.989 27.6796C19.1926 27.8848 19.4687 28 19.7566 28C20.0445 28 20.3206 27.8848 20.5242 27.6796C20.7277 27.4745 20.8421 27.1963 20.8421 26.9062V14.2188C20.8421 13.615 20.3558 13.125 19.7566 13.125Z" fill="#FF0606"/>
</svg>
