<svg width="35" height="35" viewBox="0 0 35 35" fill="none" xmlns="http://www.w3.org/2000/svg">
<path d="M4.375 30.625V24.4271L23.625 5.21354C23.9167 4.94618 24.239 4.73958 24.5919 4.59375C24.9448 4.44792 25.3152 4.375 25.7031 4.375C26.091 4.375 26.4678 4.44792 26.8333 4.59375C27.1989 4.73958 27.5149 4.95833 27.7812 5.25L29.7865 7.29167C30.0781 7.55903 30.291 7.875 30.4252 8.23958C30.5594 8.60417 30.626 8.96875 30.625 9.33333C30.625 9.72222 30.5584 10.0931 30.4252 10.446C30.292 10.799 30.0791 11.1208 29.7865 11.4115L10.5729 30.625H4.375ZM25.6667 11.375L27.7083 9.33333L25.6667 7.29167L23.625 9.33333L25.6667 11.375Z" fill="#667085"/>
</svg>
