<svg width="47" height="47" viewBox="0 0 47 47" fill="none" xmlns="http://www.w3.org/2000/svg">
<path fill-rule="evenodd" clip-rule="evenodd" d="M15.875 5.70833C15.875 4.36015 16.4106 3.06718 17.3639 2.11387C18.3172 1.16056 19.6101 0.625 20.9583 0.625H26.0417C27.3899 0.625 28.6828 1.16056 29.6361 2.11387C30.5894 3.06718 31.125 4.36015 31.125 5.70833V15.875H41.2917C42.6399 15.875 43.9328 16.4106 44.8861 17.3639C45.8394 18.3172 46.375 19.6101 46.375 20.9583V26.0417C46.375 27.3899 45.8394 28.6828 44.8861 29.6361C43.9328 30.5894 42.6399 31.125 41.2917 31.125H31.125V41.2917C31.125 42.6399 30.5894 43.9328 29.6361 44.8861C28.6828 45.8394 27.3899 46.375 26.0417 46.375H20.9583C19.6101 46.375 18.3172 45.8394 17.3639 44.8861C16.4106 43.9328 15.875 42.6399 15.875 41.2917V31.125H5.70833C4.36015 31.125 3.06718 30.5894 2.11387 29.6361C1.16056 28.6828 0.625 27.3899 0.625 26.0417V20.9583C0.625 19.6101 1.16056 18.3172 2.11387 17.3639C3.06718 16.4106 4.36015 15.875 5.70833 15.875H15.875V5.70833Z" fill="#535050"/>
</svg>
