<svg width="40" height="40" viewBox="0 0 40 40" fill="none" xmlns="http://www.w3.org/2000/svg">
<path d="M10.5 8C10.1022 8 9.72064 8.15804 9.43934 8.43934C9.15804 8.72064 9 9.10218 9 9.5V24.5C9 24.8978 9.15804 25.2794 9.43934 25.5607C9.72064 25.842 10.1022 26 10.5 26C10.8978 26 11.2794 25.842 11.5607 25.5607C11.842 25.2794 12 24.8978 12 24.5V9.5C12 9.10218 11.842 8.72064 11.5607 8.43934C11.2794 8.15804 10.8978 8 10.5 8ZM20 8C19.6022 8 19.2206 8.15804 18.9393 8.43934C18.658 8.72064 18.5 9.10218 18.5 9.5V18.5C18.5 18.8978 18.658 19.2794 18.9393 19.5607C19.2206 19.842 19.6022 20 20 20C20.3978 20 20.7794 19.842 21.0607 19.5607C21.342 19.2794 21.5 18.8978 21.5 18.5V9.5C21.5 9.10218 21.342 8.72064 21.0607 8.43934C20.7794 8.15804 20.3978 8 20 8ZM28 9.5C28 9.10218 28.158 8.72064 28.4393 8.43934C28.7206 8.15804 29.1022 8 29.5 8C29.8978 8 30.2794 8.15804 30.5607 8.43934C30.842 8.72064 31 9.10218 31 9.5V28.5C31 28.8978 30.842 29.2794 30.5607 29.5607C30.2794 29.842 29.8978 30 29.5 30C29.1022 30 28.7206 29.842 28.4393 29.5607C28.158 29.2794 28 28.8978 28 28.5V9.5Z" fill="white"/>
<path d="M3.5 0H36.5C38.432 0 40 1.568 40 3.5V36.5C40 37.4283 39.6312 38.3185 38.9749 38.9749C38.3185 39.6312 37.4283 40 36.5 40H3.5C2.57174 40 1.6815 39.6312 1.02513 38.9749C0.368749 38.3185 0 37.4283 0 36.5V3.5C0 1.568 1.568 0 3.5 0ZM3 3.5V36.5C3 36.776 3.224 37 3.5 37H36.5C36.6326 37 36.7598 36.9473 36.8536 36.8536C36.9473 36.7598 37 36.6326 37 36.5V3.5C37 3.36739 36.9473 3.24021 36.8536 3.14645C36.7598 3.05268 36.6326 3 36.5 3H3.5C3.36739 3 3.24021 3.05268 3.14645 3.14645C3.05268 3.24021 3 3.36739 3 3.5Z" fill="white"/>
</svg>
