<svg width="20" height="19" viewBox="0 0 20 19" fill="none" xmlns="http://www.w3.org/2000/svg">
<path d="M3.656 18.479C3.51242 18.6038 3.3362 18.6851 3.14803 18.7133C2.95987 18.7415 2.76756 18.7155 2.59369 18.6382C2.41982 18.5609 2.2716 18.4356 2.16644 18.2771C2.06128 18.1185 2.00354 17.9332 2 17.743V15.5C1.46957 15.5 0.960859 15.2893 0.585786 14.9142C0.210714 14.5391 0 14.0304 0 13.5V6.5C0 5.96957 0.210714 5.46086 0.585786 5.08579C0.960859 4.71071 1.46957 4.5 2 4.5H13C13.5304 4.5 14.0391 4.71071 14.4142 5.08579C14.7893 5.46086 15 5.96957 15 6.5V13.5C15 14.0304 14.7893 14.5391 14.4142 14.9142C14.0391 15.2893 13.5304 15.5 13 15.5H8.003L3.656 18.479ZM4.5 15.386C4.5911 15.3853 4.68054 15.3616 4.76 15.317L7.115 13.679C7.2826 13.5624 7.48186 13.5 7.686 13.5H12C12.2652 13.5 12.5196 13.3946 12.7071 13.2071C12.8946 13.0196 13 12.7652 13 12.5V7.5C13 7.23478 12.8946 6.98043 12.7071 6.79289C12.5196 6.60536 12.2652 6.5 12 6.5H3C2.73478 6.5 2.48043 6.60536 2.29289 6.79289C2.10536 6.98043 2 7.23478 2 7.5V12.5C2 13.04 2.429 13.482 3 13.5C3.41 13.516 3.707 13.583 3.844 13.726C3.972 13.86 3.979 14.086 4 14.516C4.003 14.579 4.003 14.693 4 14.886C4 15.0186 4.05268 15.1458 4.14645 15.2396C4.24021 15.3333 4.36739 15.386 4.5 15.386ZM16 10.516C15.9967 10.6393 15.9967 10.7627 16 10.886V10.516ZM16 10.516C16.02 10.086 16.028 9.86 16.156 9.726C16.293 9.583 16.59 9.516 17 9.5C17.571 9.482 18 9.04 18 8.5V3.5C18 3.23478 17.8946 2.98043 17.7071 2.79289C17.5196 2.60536 17.2652 2.5 17 2.5H8C7.73478 2.5 7.48043 2.60536 7.29289 2.79289C7.10536 2.98043 7 3.23478 7 3.5H5V2.5C5 1.96957 5.21071 1.46086 5.58579 1.08579C5.96086 0.710714 6.46957 0.5 7 0.5L18 0.5C18.5304 0.5 19.0391 0.710714 19.4142 1.08579C19.7893 1.46086 20 1.96957 20 2.5V9.5C20 10.0304 19.7893 10.5391 19.4142 10.9142C19.0391 11.2893 18.5304 11.5 18 11.5V13.743C17.9965 13.9332 17.9387 14.1185 17.8336 14.2771C17.7284 14.4356 17.5802 14.5609 17.4063 14.6382C17.2324 14.7155 17.0401 14.7415 16.852 14.7133C16.6638 14.6851 16.4876 14.6038 16.344 14.479L16 14.243V10.516Z" fill="#8B5715"/>
</svg>
