<svg width="20" height="18" viewBox="0 0 20 18" fill="none" xmlns="http://www.w3.org/2000/svg">
<path d="M2.00005 18V5.1L0.0500488 0.85L1.85005 0L4.20005 5.05H15.8L18.15 0L19.9501 0.85L18 5.1V18H2.00005ZM8.00005 11H12C12.2834 11 12.521 10.904 12.713 10.712C12.905 10.52 13.0007 10.2827 13 10C12.9994 9.71733 12.9034 9.48 12.712 9.288C12.5207 9.096 12.2834 9 12 9H8.00005C7.71672 9 7.47938 9.096 7.28805 9.288C7.09672 9.48 7.00072 9.71733 7.00005 10C6.99938 10.2827 7.09538 10.5203 7.28805 10.713C7.48072 10.9057 7.71805 11.0013 8.00005 11Z" fill="#8B5715"/>
</svg>
