<svg width="14" height="14" viewBox="0 0 14 14" fill="none" xmlns="http://www.w3.org/2000/svg">
<path opacity="0.3" d="M10.9393 8.54866C10.7664 8.71623 10.687 8.95856 10.7264 9.19623L11.3199 12.4808C11.3699 12.7592 11.2524 13.0409 11.0194 13.2018C10.7911 13.3687 10.4874 13.3887 10.2384 13.2552L7.2816 11.7131C7.17879 11.6583 7.06463 11.6289 6.9478 11.6256H6.76688C6.70413 11.6349 6.64271 11.655 6.58663 11.6857L3.6292 13.2352C3.48299 13.3086 3.31743 13.3346 3.15521 13.3086C2.75999 13.2338 2.49629 12.8573 2.56105 12.4601L3.15521 9.17553C3.19459 8.93587 3.11515 8.69219 2.94224 8.52196L0.531567 6.18538C0.329954 5.98978 0.259857 5.69604 0.351984 5.431C0.441442 5.16664 0.669758 4.9737 0.945474 4.93031L4.26341 4.44897C4.51576 4.42294 4.7374 4.26939 4.85089 4.04241L6.31292 1.04492C6.34763 0.978159 6.39236 0.916741 6.44644 0.864669L6.50652 0.817937C6.5379 0.783222 6.57395 0.754516 6.614 0.73115L6.68677 0.704446L6.80026 0.657715H7.08132C7.33233 0.683751 7.55331 0.833959 7.6688 1.05827L9.15019 4.04241C9.257 4.26071 9.46462 4.41226 9.70429 4.44897L13.0222 4.93031C13.3026 4.97036 13.5369 5.16397 13.6297 5.431C13.7172 5.69871 13.6418 5.99245 13.4361 6.18538L10.9393 8.54866Z" fill="#F6973F"/>
</svg>
