<svg width="14" height="14" viewBox="0 0 14 14" fill="none" xmlns="http://www.w3.org/2000/svg">
<path d="M10.9618 8.54866C10.7889 8.71623 10.7094 8.95856 10.7488 9.19623L11.3423 12.4808C11.3924 12.7592 11.2749 13.0409 11.0419 13.2018C10.8136 13.3687 10.5098 13.3887 10.2608 13.2552L7.30406 11.7131C7.20125 11.6583 7.08709 11.6289 6.97026 11.6256H6.78934C6.72659 11.6349 6.66517 11.655 6.60909 11.6857L3.65166 13.2352C3.50545 13.3086 3.33989 13.3346 3.17767 13.3086C2.78245 13.2338 2.51875 12.8573 2.58351 12.4601L3.17767 9.17553C3.21705 8.93587 3.13761 8.69219 2.9647 8.52196L0.554028 6.18538C0.352415 5.98978 0.282318 5.69604 0.374445 5.431C0.463903 5.16664 0.692219 4.9737 0.967935 4.93031L4.28587 4.44897C4.53822 4.42294 4.75986 4.26939 4.87335 4.04241L6.33538 1.04492C6.37009 0.978159 6.41482 0.916741 6.4689 0.864669L6.52898 0.817937C6.56036 0.783222 6.59641 0.754516 6.63646 0.73115L6.70923 0.704446L6.82272 0.657715H7.10378C7.35479 0.683751 7.57577 0.833959 7.69126 1.05827L9.17265 4.04241C9.27946 4.26071 9.48708 4.41226 9.72675 4.44897L13.0447 4.93031C13.3251 4.97036 13.5594 5.16397 13.6522 5.431C13.7396 5.69871 13.6642 5.99245 13.4586 6.18538L10.9618 8.54866Z" fill="#F6973F"/>
</svg>
