<svg width="20" height="20" viewBox="0 0 20 20" fill="none" xmlns="http://www.w3.org/2000/svg">
<path d="M1.75 0H18.25C19.216 0 20 0.784 20 1.75V18.25C20 18.7141 19.8156 19.1592 19.4874 19.4874C19.1592 19.8156 18.7141 20 18.25 20H1.75C1.28587 20 0.840752 19.8156 0.512563 19.4874C0.184375 19.1592 0 18.7141 0 18.25V1.75C0 0.784 0.784 0 1.75 0ZM1.5 1.75V18.25C1.5 18.388 1.612 18.5 1.75 18.5H18.25C18.3163 18.5 18.3799 18.4737 18.4268 18.4268C18.4737 18.3799 18.5 18.3163 18.5 18.25V1.75C18.5 1.6837 18.4737 1.62011 18.4268 1.57322C18.3799 1.52634 18.3163 1.5 18.25 1.5H1.75C1.6837 1.5 1.62011 1.52634 1.57322 1.57322C1.52634 1.62011 1.5 1.6837 1.5 1.75Z" fill="#8B5715"/>
</svg>
